<svg height='100px'
     width='100px'
     xmlns="http://www.w3.org/2000/svg"
     version="1.1"
     x="0px"
     y="0px"
     viewBox="-205 207 100 100"
     style="enable-background:new -205 207 100 100;"
     xml:space="preserve">
    <path d="M-114.5,266c-1.8-2.8-3.6-5.5-5.4-8.3c-0.4-0.6-0.4-1,0-1.6c1.8-2.7,3.5-5.4,5.3-8.1    c2.1-3.2,1-6.3-2.6-7.6c-3-1.1-6-2.3-9-3.4c-0.6-0.2-0.9-0.6-0.9-1.3c-0.1-3.3-0.3-6.6-0.5-9.8c-0.2-3.5-2.9-5.5-6.3-4.6    c-3.2,0.8-6.4,1.7-9.5,2.6c-0.7,0.2-1.1,0-1.6-0.5c-2-2.6-4.1-5.1-6.1-7.6c-2.2-2.8-5.6-2.8-7.9,0c-2,2.5-4.1,5-6,7.5    c-0.5,0.7-1,0.8-1.8,0.6c-3.1-0.9-6.2-1.7-8.4-2.3c-4.3-1-6.9,0.7-7.1,4.3c-0.2,3.3-0.4,6.6-0.5,10c0,0.7-0.3,1-0.9,1.3    c-3.1,1.2-6.2,2.4-9.3,3.6c-3.2,1.3-4.2,4.4-2.3,7.3c1.8,2.8,3.6,5.5,5.4,8.3c0.4,0.6,0.4,1,0,1.7c-1.9,2.8-3.7,5.6-5.5,8.5    c-1.7,2.7-0.6,5.9,2.4,7.1c3.1,1.2,6.3,2.4,9.4,3.6c0.7,0.2,0.9,0.6,0.9,1.3c0.1,3.2,0.5,6.3,0.5,9.5c0,3.2,2.8,6.1,6.7,4.9    c3.1-1,6.2-1.7,9.3-2.6c0.6-0.2,1-0.1,1.4,0.5c2.1,2.6,4.1,5.1,6.2,7.7c2.3,2.8,5.6,2.8,7.8,0c2.1-2.6,4.1-5.1,6.2-7.7    c0.4-0.5,0.7-0.7,1.4-0.5c3.2,0.9,6.4,1.7,9.6,2.6c3.3,0.9,6.1-1.1,6.2-4.5c0.2-3.3,0.4-6.6,0.5-10c0-0.8,0.4-1.1,1-1.3    c3-1.1,6.1-2.3,9.1-3.5C-113.6,272.1-112.6,268.9-114.5,266z M-138.4,249.6l-20,20c-0.5,0.5-1.2,0.9-1.9,1c-0.2,0-0.5,0.1-0.7,0.1    c-0.9,0-1.9-0.4-2.6-1.1l-8.2-8.2c-1.4-1.4-1.4-3.7,0-5.1c1.4-1.4,3.7-1.4,5.1,0l5.6,5.6l17.4-17.4c1.4-1.4,3.7-1.4,5.1,0    C-137,245.9-137,248.2-138.4,249.6z" />
</svg>
