<svg height='100px' width='100px'
     xmlns="http://www.w3.org/2000/svg"
     xmlns:xlink="http://www.w3.org/1999/xlink"
     version="1.1"
     x="0px"
     y="0px"
     viewBox="0 0 100 100"
     style="enable-background:new 0 0 100 100;"
     xml:space="preserve">
  <g>
    <path d="M11.761,47.095L5.79,51.001L0,47.095C1.508,20.833,23.315,0,50,0c26.685,0,48.492,20.833,50,47.095l-6.367-3.906   l-5.395,3.906c-0.682-9.131-4.57-17.622-11.123-24.164C69.873,15.701,60.242,11.719,50,11.719   c-10.243,0-19.873,3.982-27.116,11.212C16.332,29.473,12.443,37.964,11.761,47.095z M77.115,77.068   C69.873,84.299,60.242,88.281,50,88.281c-10.243,0-19.873-3.982-27.116-11.213c-6.552-6.541-10.441-15.032-11.123-24.163   l-6.265,3.906L0,52.905C1.508,79.167,23.315,100,50,100c26.685,0,48.492-20.833,50-47.095l-6.367-3.906l-5.395,3.906   C87.557,62.036,83.668,70.527,77.115,77.068z M68.758,29.981L43.747,54.948L31.242,42.465l-9.413,9.396L43.747,73.74L78.17,39.377   L68.758,29.981z" />
  </g>
</svg>
