<svg height='100px'
     width='100px'
     xmlns="http://www.w3.org/2000/svg"
     viewBox="0 0 8.4666667 8.4666669"
     version="1.1"
     x="0px"
     y="0px">
    <path d="m 1.7998903,0.24985437 c -0.6307719,0 -1.14670147,0.51748 -1.14669883,1.14825203 0,0.630769 0.51592693,1.148765 1.14669883,1.148765 0.630772,3e-6 1.1482494,-0.517996 1.148252,-1.148765 0,-0.63077203 -0.51748,-1.14825203 -1.148252,-1.14825203 z m 4.866886,0 c -0.6307693,0 -1.1482519,0.51748 -1.1482493,1.14825203 0,0.630769 0.51748,1.148765 1.1482493,1.148765 0.630772,3e-6 1.1467015,-0.517996 1.1467015,-1.148765 0,-0.63077203 -0.5159295,-1.14825203 -1.1467015,-1.14825203 z M 4.2333347,1.2926854 c -0.630772,0 -1.148252,0.517996 -1.148252,1.148768 0,0.630769 0.51748,1.146183 1.148252,1.146183 0.6307693,0 1.1482493,-0.515414 1.1482493,-1.146183 0,-0.630772 -0.5174774,-1.148768 -1.1482493,-1.148768 z m -2.4334444,1.557012 c -0.9929865,0 -1.79885705,0.80749 -1.79885705,1.800405 v 2.259812 a 0.26460979,0.26460979 0 0 0 0.26355146,0.263548 H 1.9032445 v -1.480013 c 0,-0.928616 0.553937,-1.733941 1.3461709,-2.107363 C 2.9218163,3.1399614 2.3948642,2.8496974 1.7998903,2.8496974 Z m 4.866886,0 c -0.5949711,0 -1.1219232,0.290267 -1.4495224,0.736389 0.7922313,0.373419 1.3461709,1.178745 1.3461709,2.107363 v 1.480013 h 1.6386598 a 0.26460979,0.26460979 0 0 0 0.2635488,-0.263548 v -2.259812 c 0,-0.992915 -0.8058705,-1.800405 -1.7988571,-1.800405 z m -2.4334416,1.042829 c -0.9309259,0 -1.699223,0.710049 -1.7916234,1.616956 -0.00616,0.06046 -0.0093,0.121912 -0.0093,0.183967 v 2.259296 a 0.26460979,0.26460979 0 0 0 0.2656152,0.264065 h 3.0706139 a 0.26460979,0.26460979 0 0 0 0.2656178,-0.264065 v -2.259296 c 0,-0.992915 -0.8079396,-1.800923 -1.8009235,-1.800923 z" />
</svg>
