<svg height='100px'
     width='100px'
     xmlns="http://www.w3.org/2000/svg"
     version="1.1"
     x="0px"
     y="0px"
     viewBox="0 0 100 100"
     enable-background="new 0 0 100 100"
     xml:space="preserve"
>
  <path d="M56.479,41.583H43.354c-0.276,0-0.5,0.224-0.5,0.5s0.224,0.5,0.5,0.5h13.125c0.276,0,0.5-0.224,0.5-0.5   S56.756,41.583,56.479,41.583z" />
  <path d="M56.479,47.484H43.354c-0.276,0-0.5,0.224-0.5,0.5s0.224,0.5,0.5,0.5h13.125c0.276,0,0.5-0.224,0.5-0.5   S56.756,47.484,56.479,47.484z" />
  <path d="M56.479,50.344H43.354c-0.276,0-0.5,0.224-0.5,0.5s0.224,0.5,0.5,0.5h13.125c0.276,0,0.5-0.224,0.5-0.5   S56.756,50.344,56.479,50.344z" />
  <path d="M56.479,44.438H43.354c-0.276,0-0.5,0.224-0.5,0.5s0.224,0.5,0.5,0.5h13.125c0.276,0,0.5-0.224,0.5-0.5   S56.756,44.438,56.479,44.438z" />
  <path d="M50,14.599c-20.054,0-36.31,16.256-36.31,36.312c0,20.055,16.256,36.311,36.31,36.311   c20.055,0,36.311-16.256,36.311-36.311C86.311,30.854,70.055,14.599,50,14.599z M60.75,62.417c0,1.104-0.896,2-2,2h-17.5   c-1.104,0-2-0.896-2-2V37.583c0-1.104,0.896-2,2-2h17.5c1.104,0,2,0.896,2,2V62.417z M73.62,41.666l-7.729,7.728l-3.499,1.376   l1.378-3.497l7.729-7.728c0.586-0.586,1.535-0.586,2.121,0S74.206,41.08,73.62,41.666z" />
</svg>
