<svg height='100px'
     width='100px'
     xmlns="http://www.w3.org/2000/svg"
     xmlns:xlink="http://www.w3.org/1999/xlink"
     version="1.1"
     x="0px"
     y="0px"
     viewBox="0 0 100 100"
     enable-background="new 0 0 100 100"
     xml:space="preserve">
    <g>
        <path d="M58,81h16c1.104,0,2-0.896,2-2V53h5.991c0.821,0,1.558-0.501,1.86-1.264c0.302-0.763,0.107-1.633-0.492-2.195l-31.991-30   c-0.77-0.722-1.967-0.722-2.736,0l-31.991,30c-0.599,0.562-0.793,1.432-0.492,2.195C16.451,52.499,17.188,53,18.009,53H24v26   c0,1.104,0.896,2,2,2h16c1.104,0,2-0.896,2-2V61h12v18C56,80.104,56.896,81,58,81z" />
    </g>
</svg>