<svg height='100px'
     width='100px'
     xmlns="http://www.w3.org/2000/svg"
     version="1.1"
     x="0px"
     y="0px"
     viewBox="0 0 48 48"
     style="enable-background:new 0 0 48 48;"
     xml:space="preserve">
  <path d="M4.57,13.43h38.86c2.21,0,4-1.79,4-4s-1.79-4-4-4H4.57c-2.21,0-4,1.79-4,4S2.36,13.43,4.57,13.43z" />
  <path d="M4.57,28h38.86c2.21,0,4-1.79,4-4s-1.79-4-4-4H4.57c-2.21,0-4,1.79-4,4S2.36,28,4.57,28z" />
  <path d="M43.43,42.57c2.21,0,4-1.79,4-4s-1.79-4-4-4H4.57c-2.21,0-4,1.79-4,4s1.79,4,4,4H43.43z" />
</svg>
