<svg version="1.1"
     xmlns="http://www.w3.org/2000/svg"
     x="45px"
     y="45px"
     viewBox="0 0 45 45"
     style="enable-background:new 0 0 45 45;"
     xml:space="preserve">
  <path d="M45,6.7v31.5c0,1.8-0.7,3.5-2,4.8c-1.3,1.3-3,2-4.8,2h-27c-1.8,0-3.5-0.7-4.8-2c-1.3-1.3-2-3-2-4.8v-6.7
	c0-0.8,0.4-1.5,1.1-2c0.7-0.4,1.6-0.4,2.2,0c0.7,0.4,1.1,1.1,1.1,2v6.7c0,0.6,0.2,1.2,0.7,1.6c0.4,0.4,1,0.7,1.6,0.7h27
	c0.6,0,1.2-0.2,1.6-0.7s0.7-1,0.7-1.6V6.7c0-0.6-0.2-1.2-0.7-1.6s-1-0.7-1.6-0.7h-27c-0.6,0-1.2,0.2-1.6,0.7C9.3,5.6,9,6.1,9,6.7
	v6.7c0,0.8-0.4,1.5-1.1,2c-0.7,0.4-1.6,0.4-2.2,0c-0.7-0.4-1.1-1.1-1.1-2V6.7c0-1.8,0.7-3.5,2-4.8c1.3-1.3,3-2,4.8-2h27
	C40,0,41.8,0.7,43,2C44.3,3.2,45,5,45,6.7z M18.7,29.9c-0.4,0.4-0.7,1-0.7,1.6c0,0.6,0.2,1.2,0.7,1.6c0.4,0.4,1,0.7,1.6,0.7
	c0.6,0,1.2-0.2,1.6-0.7l9-9c0.4-0.4,0.7-1,0.7-1.6s-0.2-1.2-0.7-1.6l-9-9c-0.6-0.6-1.4-0.8-2.2-0.6c-0.8,0.2-1.4,0.8-1.6,1.6
	c-0.2,0.8,0,1.6,0.6,2.2l5.2,5.2H2.3c-0.8,0-1.5,0.4-2,1.1c-0.4,0.7-0.4,1.6,0,2.2c0.4,0.7,1.1,1.1,2,1.1h21.6L18.7,29.9z" />
</svg>
